<?xml version="1.0" standalone="no"?>
<!DOCTYPE svg PUBLIC "-//W3C//DTD SVG 20010904//EN"
 "http://www.w3.org/TR/2001/REC-SVG-20010904/DTD/svg10.dtd">
<svg version="1.0" xmlns="http://www.w3.org/2000/svg"
 width="300.000000pt" height="300.000000pt" viewBox="0 0 300.000000 300.000000"
 preserveAspectRatio="xMidYMid meet">
<metadata>
Created by potrace 1.10, written by Peter Selinger 2001-2011
</metadata>
<g transform="translate(0.000000,300.000000) scale(0.100000,-0.100000)"
fill="#999999" stroke="none">
<path d="M1273 2426 c-102 -27 -236 -86 -309 -137 -187 -128 -334 -344 -390
-571 -21 -88 -29 -286 -15 -378 38 -241 177 -475 370 -622 90 -68 247 -143
356 -169 125 -30 315 -30 439 0 105 25 234 84 319 145 72 51 199 180 246 249
45 66 104 197 131 287 27 93 38 313 21 416 -50 292 -228 551 -474 688 -34 19
-111 52 -172 72 -106 36 -116 38 -270 41 -144 3 -169 1 -252 -21z m204 -18 c4
-7 8 -84 8 -171 l1 -158 -101 3 -100 3 -1 45 c-1 25 0 35 3 23 4 -20 30 -39
41 -29 7 7 -26 56 -38 56 -20 0 -10 48 10 53 11 3 20 10 20 17 0 7 -9 14 -20
17 -17 5 -20 14 -20 64 l0 58 38 11 c75 20 148 24 159 8z m211 -9 c33 -11 33
-12 30 -68 l-3 -56 -48 -3 c-39 -3 -48 -6 -45 -20 2 -9 14 -19 28 -22 27 -6
60 -60 60 -98 0 -20 -4 -22 -22 -16 -41 12 -79 35 -119 71 -48 44 -53 66 -9
50 32 -12 46 -6 37 18 -4 9 -19 15 -42 15 l-35 0 0 68 c0 38 3 72 8 76 9 10
118 0 160 -15z m-440 -53 c-2 -13 -10 -21 -23 -21 -23 0 -33 34 -14 45 20 13
40 -1 37 -24z m550 0 c-2 -13 -10 -21 -23 -21 -23 0 -33 34 -14 45 20 13 40
-1 37 -24z m-603 -45 l50 -27 3 -84 c3 -75 1 -85 -20 -107 -13 -14 -35 -31
-50 -39 -36 -19 -108 -18 -136 2 -21 15 -25 15 -41 0 -12 -11 -37 -16 -86 -16
l-68 0 22 24 c13 14 39 32 57 41 30 14 34 20 34 56 0 36 2 40 20 34 22 -7 53
11 44 26 -3 5 -16 9 -30 9 -38 0 -29 26 21 60 84 58 109 61 180 21z m744 9
c37 -18 39 -21 32 -52 -9 -40 -5 -55 20 -68 13 -8 25 -7 39 0 28 15 25 30 -5
30 -17 0 -29 8 -37 25 -6 14 -8 28 -5 31 8 8 96 -58 160 -121 54 -52 55 -64
14 -140 -63 -114 -232 -141 -333 -52 -57 49 -77 99 -72 177 4 79 29 123 92
164 48 31 47 31 95 6z m-299 -209 l45 -21 -85 0 -85 0 -1 61 -1 60 41 -40 c22
-22 61 -49 86 -60z m-715 58 c0 -17 -6 -24 -20 -24 -23 0 -33 34 -13 46 20 13
33 5 33 -22z m-71 -55 c7 -19 -10 -44 -31 -44 -19 0 -28 27 -13 45 16 20 36
19 44 -1z m396 -94 c0 -30 -5 -42 -17 -47 -10 -4 -33 -19 -51 -35 -18 -15 -43
-28 -56 -28 -44 0 -44 55 0 66 13 3 24 12 24 20 0 8 7 14 16 14 9 0 29 11 46
25 16 14 31 25 34 25 2 0 4 -18 4 -40z m230 25 c19 -23 3 -35 -48 -36 -27 -1
-36 -4 -22 -6 14 -3 33 -14 43 -26 10 -12 16 -16 12 -9 -3 6 -3 18 2 25 5 8 9
2 13 -18 7 -38 34 -40 38 -2 2 15 8 27 15 27 6 0 2 6 -8 14 -16 12 -17 16 -6
30 18 21 173 23 190 2 8 -9 11 -64 9 -172 l-3 -159 -97 -3 -97 -3 -3 53 c-2
39 -7 53 -18 53 -11 0 -14 -9 -12 -30 1 -16 0 -40 -3 -53 -5 -22 -9 -23 -103
-20 l-97 3 -3 159 c-2 108 1 163 9 172 17 20 172 20 189 -1z m-420 -135 l0
-110 -60 0 c-38 0 -60 4 -60 11 0 22 -29 -12 -35 -41 -13 -60 57 -164 143
-213 30 -16 58 -40 63 -53 4 -13 13 -24 19 -24 13 0 39 -40 50 -79 l9 -31 -45
0 c-40 0 -45 3 -57 33 -19 44 -35 55 -87 59 -42 3 -45 5 -48 33 -2 21 -13 36
-35 50 -18 11 -42 40 -54 65 -43 83 -22 173 50 219 50 33 51 57 1 36 -49 -20
-59 -19 -72 10 -14 30 -68 65 -99 65 -19 0 -23 5 -23 33 0 19 3 37 7 40 3 4
80 7 170 7 l163 0 0 -110z m1220 91 c12 -23 13 -71 2 -71 -5 0 -49 -31 -99
-69 -50 -38 -94 -67 -97 -63 -3 3 -6 27 -6 53 0 50 17 76 27 40 7 -27 23 -17
23 15 0 21 4 24 19 19 14 -4 23 0 31 15 6 11 17 20 25 20 8 0 15 5 15 12 0 13
29 48 41 48 5 0 13 -9 19 -19z m-485 -71 c0 -8 -8 -16 -17 -18 -13 -2 -18 3
-18 18 0 15 5 20 18 18 9 -2 17 -10 17 -18z m-998 -52 c30 -28 36 -63 18 -102
-42 -89 -175 -58 -175 39 0 48 59 99 104 89 17 -3 41 -15 53 -26z m1189 -19
c46 -14 66 -42 72 -98 4 -43 1 -53 -20 -73 -14 -13 -33 -37 -42 -55 -34 -66
-103 -83 -152 -38 -17 16 -34 23 -43 19 -37 -15 -46 -9 -49 31 -3 34 1 43 24
62 l28 22 -27 29 c-17 18 -27 39 -27 59 0 34 13 49 50 55 37 6 150 -2 186 -13z
m356 4 c30 -35 31 -61 2 -98 -17 -23 -35 -35 -50 -35 -17 0 -24 -6 -24 -19 0
-34 21 -34 67 -2 24 17 48 29 52 26 12 -7 33 -162 26 -185 -5 -16 -15 -20 -50
-20 -38 0 -44 3 -47 23 -4 28 -21 25 -28 -4 -5 -21 -10 -22 -75 -20 -77 3 -92
11 -112 58 -43 104 33 239 157 278 60 18 64 18 82 -2z m-1111 -3 c18 -10 19
-23 19 -225 0 -118 -4 -215 -8 -215 -17 0 -91 86 -94 110 -2 17 -10 26 -26 28
-12 2 -30 14 -38 28 -11 16 -26 24 -44 24 -61 0 -69 67 -10 86 21 7 40 22 48
38 7 14 17 26 23 26 5 0 9 15 9 33 0 37 7 49 35 65 25 14 61 15 86 2z m-198
-96 c7 -7 -17 -34 -29 -34 -4 0 -15 -7 -25 -16 -16 -14 -18 -14 -28 4 -9 16
-7 24 5 36 15 16 65 22 77 10z m-383 -59 c0 -18 -5 -25 -19 -25 -11 0 -23 5
-26 10 -11 18 3 40 25 40 15 0 20 -7 20 -25z m100 -39 c0 -16 7 -27 21 -31 23
-8 59 -61 59 -87 0 -15 -9 -18 -50 -18 -43 0 -50 3 -48 17 2 10 -4 19 -14 21
-13 2 -18 -3 -18 -17 0 -19 -6 -21 -55 -21 -52 0 -55 1 -55 26 0 28 49 84 74
84 10 0 16 9 16 25 0 22 4 25 35 25 30 0 35 -3 35 -24z m728 2 c28 -28 13 -37
-65 -40 l-78 -3 1 -45 c1 -30 -4 -49 -15 -57 -24 -19 2 -32 50 -26 32 5 40 2
45 -13 3 -11 10 -27 15 -36 13 -25 12 -28 -10 -28 -33 0 -52 12 -62 38 -13 35
-31 15 -27 -29 l3 -34 75 0 c74 0 77 -1 72 -35 -3 -15 -175 -13 -190 2 -8 8
-12 57 -12 153 0 96 4 145 12 153 7 7 43 12 93 12 50 0 86 -5 93 -12z m231 -2
c8 -9 11 -61 9 -162 l-3 -149 -96 -3 c-82 -2 -98 0 -103 14 -11 29 5 36 78 32
l71 -3 3 53 c2 28 7 52 13 52 5 0 9 7 9 15 0 8 -4 15 -10 15 -5 0 -10 23 -10
50 l0 50 -73 0 c-41 0 -77 3 -80 6 -3 4 -2 15 4 25 8 16 22 19 93 19 59 0 87
-4 95 -14z m357 -61 c9 -38 2 -47 -24 -30 -18 13 -20 20 -12 36 14 26 28 24
36 -6z m-636 -14 c-5 -11 -10 -29 -10 -40 0 -17 -6 -21 -35 -21 -37 0 -42 9
-24 41 10 20 41 37 67 38 9 1 10 -4 2 -18z m177 9 c25 -9 53 -44 53 -65 0 -3
-17 -5 -39 -5 -32 0 -40 4 -44 23 -2 12 -8 30 -12 40 -8 20 0 21 42 7z m-53
-39 c12 -13 14 -21 6 -26 -7 -4 -9 -18 -5 -32 3 -14 1 -31 -6 -39 -14 -17 -83
-18 -96 -1 -15 19 -10 96 7 107 25 16 76 11 94 -9z m478 -29 c20 -15 55 -37
78 -47 24 -11 59 -37 79 -58 20 -21 51 -54 69 -72 18 -19 32 -44 32 -58 0 -18
8 -28 29 -36 31 -13 57 -53 47 -70 -5 -8 -102 -11 -312 -11 l-304 0 0 23 c0
13 5 28 12 35 9 9 9 12 0 12 -9 0 -12 31 -12 110 0 125 12 150 73 151 17 0 59
11 92 24 77 30 76 30 117 -3z m-1117 -55 c15 -36 5 -58 -23 -50 -18 4 -47 77
-37 94 10 16 46 -10 60 -44z m-215 3 c0 -26 27 -26 35 1 6 17 14 20 47 17 49
-4 70 -27 50 -58 -17 -28 -16 -30 16 -30 38 0 52 -17 52 -61 0 -46 -23 -73
-54 -63 -45 15 -51 11 -49 -29 4 -62 -10 -77 -67 -77 -42 0 -52 4 -67 26 -14
21 -14 29 -4 46 16 26 -2 50 -34 42 -17 -4 -24 0 -29 18 -10 39 -7 96 7 101
10 4 10 7 0 18 -7 7 -13 23 -13 35 0 27 11 32 68 33 36 1 42 -2 42 -19z m953
14 c7 -7 -20 -64 -31 -65 -4 0 -19 -3 -34 -5 -26 -4 -27 -3 -19 18 5 13 12 31
15 41 5 17 55 25 69 11z m637 -19 c0 -16 6 -25 15 -25 9 0 15 9 15 25 0 22 4
25 39 25 22 0 43 -6 48 -12 7 -13 6 -150 -3 -179 -12 -41 -74 -25 -74 19 1 21
-17 43 -77 99 l-78 72 58 1 c54 0 57 -1 57 -25z m-1246 -61 c33 -33 10 -82
-71 -148 -59 -49 -73 -48 -54 6 6 17 11 60 11 94 l0 64 49 0 c32 0 55 -6 65
-16z m204 -157 l3 -77 -158 0 -158 1 80 74 c79 72 81 74 140 77 96 7 90 12 93
-75z m224 46 c16 -14 18 -34 18 -175 l0 -158 -93 0 c-59 0 -97 4 -105 12 -8 8
-12 59 -12 163 0 104 4 155 12 163 19 19 157 16 180 -5z m237 3 c8 -9 11 -64
9 -172 l-3 -159 -100 -3 -100 -3 3 168 c2 115 7 170 15 175 22 14 164 9 176
-6z m-819 -103 c0 -20 -4 -24 -22 -21 -25 3 -37 36 -17 48 20 13 39 0 39 -27z
m0 -61 c0 -5 -13 -20 -28 -35 -21 -21 -38 -27 -70 -27 -38 0 -42 -2 -42 -25 0
-14 -7 -28 -16 -32 -20 -8 -44 22 -67 83 l-16 44 119 0 c66 0 120 -4 120 -8z
m358 -19 c3 -21 -1 -23 -40 -23 -28 0 -64 -11 -103 -30 -51 -26 -55 -29 -25
-24 19 4 44 8 55 9 44 6 86 18 91 26 18 30 23 -12 24 -196 0 -113 -2 -205 -5
-205 -13 0 -108 72 -158 120 -32 30 -70 61 -84 68 -18 10 -22 17 -14 25 17 17
13 46 -8 59 -10 6 -17 17 -14 24 2 6 0 15 -6 18 -7 5 -7 15 1 31 11 26 41 41
58 30 9 -6 90 34 90 45 0 3 -29 3 -65 2 -54 -3 -68 -8 -87 -29 -55 -61 -95
-94 -120 -100 -36 -7 -35 -18 2 -31 18 -7 40 -28 56 -54 37 -59 224 -221 239
-206 2 2 -18 22 -45 43 -28 22 -50 48 -50 57 0 28 -37 58 -71 58 -17 0 -28 4
-24 10 3 6 19 10 35 10 23 0 40 -13 80 -59 28 -33 70 -72 92 -88 40 -27 40
-28 17 -35 -19 -6 -18 -7 7 -3 52 7 74 -4 74 -36 0 -21 -5 -29 -18 -29 -28 0
-234 105 -271 139 -19 17 -38 31 -43 31 -5 0 -14 12 -20 26 -7 14 -24 32 -40
40 -15 8 -31 26 -34 39 -3 14 -12 25 -20 25 -7 0 -21 11 -29 24 -13 19 -14 29
-5 45 6 12 15 21 20 21 6 0 20 11 32 25 12 14 28 25 35 25 8 0 21 12 30 28 9
15 30 37 47 49 29 20 42 21 171 20 137 -2 140 -2 143 -24z m1102 16 c0 -6 -5
-19 -10 -30 -10 -17 -22 -19 -128 -19 l-118 0 -59 -60 -59 -60 -113 0 -113 0
0 83 c0 46 3 87 7 90 11 12 593 8 593 -4z m-170 -129 c-68 -81 -95 -100 -147
-100 l-45 0 17 28 c10 15 36 48 57 75 39 47 40 47 100 47 l60 0 -42 -50z m114
33 c10 -26 -23 -48 -42 -29 -8 8 -12 22 -9 30 8 21 43 20 51 -1z m-1368 -98
c-7 -20 -46 -19 -46 0 0 9 8 27 17 42 l17 26 9 -27 c5 -15 6 -33 3 -41z m1311
9 c7 -19 -20 -49 -36 -40 -12 8 -15 39 -4 49 12 12 33 7 40 -9z m-1262 -34 c0
-8 -10 -16 -22 -18 -22 -3 -32 16 -16 32 12 11 38 2 38 -14z m390 10 c3 -5 15
-10 26 -10 10 0 19 5 19 10 0 12 50 13 68 1 8 -4 12 -19 10 -32 -2 -20 -10
-25 -41 -27 -48 -4 -45 -26 4 -30 l34 -3 0 -100 1 -101 -37 6 c-26 4 -38 2
-42 -8 -4 -10 5 -13 36 -12 37 1 42 -1 39 -19 -5 -29 -8 -30 -80 -30 -51 0
-73 5 -94 20 -24 18 -27 26 -26 83 1 45 5 62 14 62 8 0 14 -4 14 -9 0 -5 11
-19 25 -32 13 -13 25 -32 25 -41 0 -11 8 -18 19 -18 36 0 29 26 -20 65 -26 22
-48 47 -48 55 0 8 20 31 44 50 45 36 60 74 28 68 -10 -2 -19 -11 -21 -20 -4
-21 -56 -78 -71 -78 -15 0 -14 33 2 49 10 11 10 13 0 7 -20 -11 -16 64 4 86
17 19 58 24 68 8z m230 1 c-10 -18 15 -22 37 -7 54 38 88 6 87 -82 -1 -34 -5
-62 -11 -62 -12 0 -60 57 -70 82 -9 21 -38 24 -38 4 0 -8 8 -21 18 -28 9 -8
30 -28 46 -46 l30 -32 -47 -45 c-50 -48 -60 -75 -27 -75 12 0 20 7 20 18 0 9
12 28 25 41 14 13 25 27 25 32 0 5 6 9 14 9 11 0 14 -16 15 -65 0 -78 -13 -91
-100 -101 -63 -7 -99 6 -99 36 0 24 8 25 38 4 18 -13 26 -13 38 -3 22 18 1 34
-44 34 -32 0 -37 3 -36 23 0 12 1 56 2 97 l2 75 35 0 c50 0 48 28 -2 32 -41 3
-55 27 -33 53 13 16 85 21 75 6z m387 -38 c83 -87 90 -127 27 -173 -74 -53
-109 -48 -109 17 0 27 -4 34 -17 31 -15 -3 -17 -12 -15 -60 3 -51 1 -58 -22
-73 -14 -9 -40 -18 -58 -19 l-33 -1 -3 163 -2 162 93 0 93 0 46 -47z m178 -6
c0 -32 -50 -107 -71 -107 -5 0 -9 18 -9 40 0 30 7 48 31 75 35 40 49 38 49 -8z"/>
<path d="M1360 2378 c-18 -13 -40 -34 -49 -48 -12 -18 -2 -14 37 18 47 40 59
52 48 52 -1 0 -18 -10 -36 -22z"/>
<path d="M1432 2365 c-12 -14 -26 -25 -32 -25 -12 0 -69 -61 -70 -73 0 -11
118 94 124 110 8 19 2 16 -22 -12z"/>
<path d="M1377 2243 c-15 -14 -7 -43 12 -43 26 0 36 17 21 35 -14 16 -23 19
-33 8z"/>
<path d="M1320 2213 c1 -10 14 -34 30 -53 24 -27 39 -35 70 -37 39 -3 40 -2
40 28 l0 31 -20 -23 c-19 -22 -21 -23 -30 -6 -6 9 -19 17 -29 17 -11 0 -24 12
-31 30 -14 33 -30 40 -30 13z"/>
<path d="M1603 2363 c-18 -6 -16 -40 1 -46 8 -3 20 1 27 9 10 12 9 18 -2 28
-8 8 -20 12 -26 9z"/>
<path d="M1141 2266 c-16 -19 -6 -36 20 -36 15 0 20 6 17 22 -4 27 -21 33 -37
14z"/>
<path d="M1054 2159 c-8 -14 21 -43 35 -35 19 12 13 46 -8 46 -11 0 -23 -5
-27 -11z"/>
<path d="M1137 2156 c-9 -22 19 -42 37 -26 19 15 10 40 -14 40 -10 0 -20 -6
-23 -14z"/>
<path d="M1862 2260 c-55 -34 -92 -141 -58 -169 10 -8 22 -7 50 4 32 13 36 19
36 50 0 28 5 38 25 47 22 10 26 17 23 47 -4 44 -28 51 -76 21z m16 -68 c-26
-48 -48 -62 -48 -31 0 20 56 86 66 77 2 -3 -6 -23 -18 -46z"/>
<path d="M1926 2170 c-20 -20 -16 -50 7 -50 8 0 22 -9 31 -19 21 -23 46 -17
46 11 0 16 -50 79 -62 77 -2 0 -11 -9 -22 -19z"/>
<path d="M2058 2179 c-11 -6 -18 -22 -18 -39 0 -24 7 -33 40 -50 23 -11 45
-18 50 -15 13 8 13 65 0 65 -5 0 -10 -4 -10 -10 0 -5 -10 -10 -21 -10 -19 0
-21 4 -16 35 6 37 2 41 -25 24z"/>
<path d="M1873 2077 c-46 -17 -57 -31 -44 -55 14 -25 72 -62 99 -62 17 0 21 8
24 52 5 74 -13 89 -79 65z m45 -55 c2 -12 -1 -22 -6 -22 -14 0 -43 36 -35 44
14 13 38 1 41 -22z"/>
<path d="M2003 2073 c-18 -12 -23 -25 -23 -59 0 -48 10 -59 45 -50 30 8 85 54
85 72 0 7 -18 23 -40 34 -46 23 -39 23 -67 3z m53 -34 c3 -6 0 -17 -8 -25 -13
-13 -16 -13 -28 1 -12 14 -11 18 1 26 19 12 26 11 35 -2z"/>
<path d="M1324 1987 c-2 -7 -3 -69 -2 -137 4 -150 12 -159 87 -87 25 24 51 46
57 48 6 2 -1 17 -16 33 l-28 29 5 -27 c4 -20 0 -28 -18 -35 -13 -5 -20 -10
-15 -10 11 -1 -23 -41 -35 -41 -11 0 -2 181 9 192 6 6 24 -3 48 -26 21 -20 47
-35 59 -35 20 2 20 2 0 6 -11 3 -38 27 -60 53 -40 48 -80 65 -91 37z"/>
<path d="M1567 1980 c3 -11 0 -27 -7 -35 -8 -10 -9 -15 -2 -15 6 0 17 8 24 19
7 10 23 21 36 25 18 6 22 4 22 -12 0 -11 -6 -25 -14 -31 -8 -6 -19 -25 -26
-42 -12 -27 -10 -33 19 -70 47 -58 34 -66 -22 -14 -50 46 -70 54 -83 33 -4 -7
-3 -8 5 -4 7 5 33 -16 70 -55 78 -86 91 -80 91 41 0 52 -4 90 -10 90 -15 0
-24 -51 -12 -71 7 -10 8 -21 3 -24 -16 -9 -41 7 -47 30 -9 37 5 66 37 77 26 9
30 15 27 42 -3 30 -4 31 -60 34 -53 3 -56 2 -51 -18z"/>
<path d="M1435 1750 c-18 -20 -11 -25 19 -14 17 6 23 34 8 34 -5 0 -17 -9 -27
-20z"/>
<path d="M824 1959 c-8 -14 21 -43 35 -35 6 4 11 16 11 27 0 21 -34 27 -46 8z"/>
<path d="M924 1915 c-7 -18 3 -35 22 -35 20 0 30 30 13 41 -20 12 -29 11 -35
-6z"/>
<path d="M1843 1813 c-7 -3 -13 -13 -13 -23 0 -19 17 -30 38 -23 6 3 12 13 12
23 0 19 -17 30 -37 23z"/>
<path d="M1970 1781 c0 -27 19 -36 37 -18 18 18 9 37 -18 37 -12 0 -19 -7 -19
-19z"/>
<path d="M1900 1730 c-11 -7 -3 -10 28 -10 26 0 41 4 37 10 -8 13 -45 13 -65
0z"/>
<path d="M1872 1678 c-15 -18 1 -41 24 -36 23 4 26 41 3 46 -9 1 -21 -3 -27
-10z"/>
<path d="M2281 1811 c-15 -10 -8 -41 9 -41 15 0 25 29 14 40 -5 5 -15 5 -23 1z"/>
<path d="M2144 1719 c-3 -6 0 -18 9 -26 18 -18 37 -9 37 18 0 21 -34 27 -46 8z"/>
<path d="M2150 1620 c-18 -11 -4 -40 20 -40 13 0 20 7 20 19 0 22 -21 33 -40
21z"/>
<path d="M1164 1795 c-4 -9 -2 -21 4 -27 15 -15 44 -1 40 19 -4 23 -36 29 -44
8z"/>
<path d="M1107 1664 c-4 -4 -7 -16 -7 -26 0 -14 6 -19 23 -16 14 2 22 10 22
23 0 20 -25 32 -38 19z"/>
<path d="M1171 1611 c-15 -10 -8 -41 9 -41 15 0 25 29 14 40 -5 5 -15 5 -23 1z"/>
<path d="M1930 1485 c-14 -8 -49 -19 -78 -25 -30 -7 -56 -19 -61 -28 -16 -32
-21 -80 -8 -85 8 -2 8 -14 -2 -46 -7 -24 -10 -45 -7 -48 3 -3 11 15 18 41 7
25 16 46 21 46 11 0 0 -55 -24 -109 -15 -35 -16 -41 -3 -30 22 18 44 64 44 94
0 14 6 25 13 25 6 0 41 29 76 65 36 36 72 65 80 64 9 0 43 -15 75 -32 56 -30
61 -36 88 -101 32 -78 43 -93 90 -120 33 -20 32 -19 -11 30 -30 33 -52 73 -70
123 -24 69 -29 75 -65 88 -22 7 -54 24 -72 38 -37 28 -67 31 -104 10z m38 -26
c3 -19 -77 -64 -90 -51 -12 12 -1 35 15 29 7 -2 20 7 30 20 20 25 40 26 45 2z
m-99 -56 c12 -23 -4 -53 -29 -53 -26 0 -45 36 -29 56 16 19 46 18 58 -3z"/>
<path d="M2181 1393 c-2 -33 43 -123 84 -165 25 -26 45 -44 45 -39 0 5 -20 30
-45 56 -27 30 -52 70 -64 104 -11 31 -20 51 -20 44z"/>
<path d="M1944 1345 c-4 -9 -4 -19 0 -22 3 -4 6 1 6 11 0 13 7 17 28 14 38 -4
34 -28 -8 -42 -37 -12 -47 -38 -17 -44 11 -2 17 3 17 15 0 10 10 23 23 28 12
6 22 19 22 30 0 26 -62 35 -71 10z"/>
<path d="M2026 1293 c-13 -14 -5 -33 14 -33 11 0 20 6 20 14 0 15 -24 28 -34
19z"/>
<path d="M688 1404 c-37 -19 -39 -70 -5 -102 29 -28 57 -28 91 -1 35 28 35 70
0 98 -31 25 -49 26 -86 5z m84 -39 c9 -21 8 -28 -7 -45 -33 -36 -75 -19 -75
30 0 34 7 40 42 40 21 0 32 -7 40 -25z"/>
<path d="M2336 1434 c-21 -20 -20 -37 2 -57 25 -23 39 -21 53 4 8 16 8 28 0
45 -12 28 -33 31 -55 8z m41 -15 c16 -16 5 -39 -17 -39 -20 0 -30 17 -22 38 5
15 24 16 39 1z"/>
<path d="M1126 1275 c-6 -17 16 -31 33 -21 13 9 2 36 -14 36 -7 0 -16 -7 -19
-15z"/>
<path d="M1060 1219 c0 -14 5 -19 17 -17 26 5 29 38 4 38 -15 0 -21 -6 -21
-21z"/>
<path d="M1133 1214 c-7 -19 11 -39 26 -30 16 10 13 33 -4 40 -9 3 -18 -1 -22
-10z"/>
<path d="M1364 1235 c-4 -10 -1 -21 7 -26 20 -12 34 -5 34 17 0 24 -33 31 -41
9z"/>
<path d="M1327 1113 c-4 -3 -7 -12 -7 -20 0 -15 26 -18 34 -4 7 11 -18 33 -27
24z"/>
<path d="M1370 1040 c0 -13 7 -20 20 -20 13 0 20 7 20 20 0 13 -7 20 -20 20
-13 0 -20 -7 -20 -20z"/>
<path d="M1594 1239 c-8 -14 21 -43 35 -35 6 4 11 16 11 27 0 21 -34 27 -46 8z"/>
<path d="M1653 1104 c-8 -21 13 -42 28 -27 13 13 5 43 -11 43 -6 0 -13 -7 -17
-16z"/>
<path d="M1597 1053 c-14 -13 -7 -33 11 -33 24 0 32 8 25 26 -5 15 -25 19 -36
7z"/>
<path d="M1165 960 c-38 -8 -69 -28 -85 -54 -13 -20 -12 -20 15 -2 41 27 83
36 112 25 34 -13 38 -7 10 18 -16 15 -29 18 -52 13z"/>
<path d="M1120 897 l-35 -10 45 -9 c25 -4 61 -7 80 -6 31 3 33 4 15 14 -33 19
-68 22 -105 11z"/>
<path d="M1843 1094 c-8 -21 13 -42 28 -27 13 13 5 43 -11 43 -6 0 -13 -7 -17
-16z"/>
<path d="M1775 1031 c-8 -15 3 -31 21 -31 9 0 14 7 12 17 -4 20 -24 28 -33 14z"/>
<path d="M1847 1034 c-14 -15 -6 -34 14 -34 14 0 19 5 17 17 -3 18 -20 27 -31
17z"/>
<path d="M1917 1034 c-14 -14 -7 -35 11 -32 9 2 17 10 17 17 0 16 -18 25 -28
15z"/>
<path d="M1344 765 c-7 -18 3 -35 21 -35 15 0 28 27 19 41 -8 14 -34 11 -40
-6z"/>
<path d="M1290 663 c1 -17 29 -45 43 -41 9 2 5 10 -15 26 -15 13 -28 20 -28
15z"/>
<path d="M1610 761 c0 -27 19 -36 37 -18 18 18 9 37 -18 37 -12 0 -19 -7 -19
-19z"/>
<path d="M1862 858 c2 -13 10 -23 18 -23 8 0 16 10 18 23 3 17 -2 22 -18 22
-16 0 -21 -5 -18 -22z"/>
<path d="M1920 765 c-15 -18 -5 -35 21 -35 12 0 19 7 19 19 0 24 -25 34 -40
16z"/>
</g>
</svg>
